<?xml version="1.0" standalone="yes"?>
<!DOCTYPE svg PUBLIC "-//W3C//DTD SVG 1.1//EN" "http://www.w3.org/Graphics/SVG/1.1/DTD/svg11.dtd">
<svg version="1.1" xmlns="http://www.w3.org/2000/svg" xmlns:xlink="http://www.w3.org/1999/xlink"
				id="snow" class="circle-glyph element" x="0" y="0" width="120" height="120">
	<title>Snow Elemental Glyph</title>
	<g transform="translate(10,10)" style="fill:none;stroke:black;stroke-width:2.5">
		<circle class="outline" cx="50" cy="50" r="50" stroke-width="4" fill="#AFF" />
		<line x1="50" x2="50" y1="0" y2="100" />
		<line y1="25" y2="75" x1="6.7" x2="93.3" />
		<line y1="25" y2="75" x1="93.3" x2="6.7" />
		
		<line x1="40" x2="60" y1="20" y2="20" />
		<line x1="40" x2="60" y1="20" y2="20" transform="rotate(60 50 50)" />
		<line x1="40" x2="60" y1="20" y2="20" transform="rotate(120 50 50)" />
		<line x1="40" x2="60" y1="20" y2="20" transform="rotate(180 50 50)" />
		<line x1="40" x2="60" y1="20" y2="20" transform="rotate(240 50 50)" />
		<line x1="40" x2="60" y1="20" y2="20" transform="rotate(300 50 50)" />
	</g>
</svg>
