<?xml version="1.0" standalone="yes"?>
<!DOCTYPE svg PUBLIC "-//W3C//DTD SVG 1.1//EN" "http://www.w3.org/Graphics/SVG/1.1/DTD/svg11.dtd">
<svg version="1.1" xmlns="http://www.w3.org/2000/svg" xmlns:xlink="http://www.w3.org/1999/xlink"
			id="sound" class="circle-glyph element" x="0" y="0" width="120" height="120">
	<title>Sound Elemental Glyph</title>
	<g transform="translate(10,10)" style="fill:none;stroke:black;stroke-width:2.5">
		<circle class="outline" cx="50" cy="50" r="50" stroke-width="4" fill="lime" />

		<path d="M0,20 C10,0  90,40 100,20" />
		<path d="M0,35 C10,15 90,55	100,35" />
		<path d="M0,50 C10,30 90,70	100,50" />
		<path d="M0,65 C10,45 90,85	100,65" />
		<path d="M0,80 C10,60 90,100 100,80" />
		
		<circle cx="20" cy="22" r="7.5" />
		<circle cx="60" cy="37" r="7.5" />
		<circle cx="40" cy="63" r="7.5" />
		<circle cx="80" cy="78" r="7.5" />
	</g>
</svg>
