<?xml version="1.0" standalone="yes"?>
<!DOCTYPE svg PUBLIC "-//W3C//DTD SVG 1.1//EN" "http://www.w3.org/Graphics/SVG/1.1/DTD/svg11.dtd">
<svg version="1.1" xmlns="http://www.w3.org/2000/svg" xmlns:xlink="http://www.w3.org/1999/xlink" width="600" height="120">
<!-- Apparently, as of now, SvgSalamander doesn't understand fragments, or inner SVGs. -->


<svg id="sound" class="circle-glyph element" x="480" y="0" width="120" height="120">
	<title>Sound Elemental Glyph</title>
	<g transform="translate(10,10)" style="fill:none;stroke:black;stroke-width:2.5">
		<circle class="outline" cx="50" cy="50" r="50" stroke-width="4" fill="lime" />

		<path d="M0,20 C10,0  90,40 100,20" />
		<path d="M0,35 C10,15 90,55	100,35" />
		<path d="M0,50 C10,30 90,70	100,50" />
		<path d="M0,65 C10,45 90,85	100,65" />
		<path d="M0,80 C10,60 90,100 100,80" />
		
		<circle cx="20" cy="22" r="7.5" />
		<circle cx="60" cy="37" r="7.5" />
		<circle cx="40" cy="63" r="7.5" />
		<circle cx="80" cy="78" r="7.5" />
	</g>
</svg>

<svg id="light" class="circle-glyph element" x="360" y="0" width="120" height="120">
	<title>Light Elemental Glyph</title>
	<g transform="translate(10,10)" style="fill:none;stroke:black;stroke-width:2.5">
		<circle class="outline" cx="50" cy="50" r="50" stroke-width="4" fill="#FDFDBB" />
		
		<circle cx="50" cy="50" r="16.6" />
		<circle cx="50" cy="50" r="33.3" />
		<line x1="55.6" y1="55.6" x2="85.4" y2="85.4" />
		<line x1="55.6" y1="44.3" x2="85.4" y2="14.6" />
		<line x1="44.3" y1="44.3" x2="14.6" y2="14.6" />
		<line x1="44.3" y1="55.6" x2="14.6" y2="85.4" />
	</g>
</svg>

<svg id="snow" class="circle-glyph element" x="240" y="0" width="120" height="120">
	<title>Snow Elemental Glyph</title>
	<g transform="translate(10,10)" style="fill:none;stroke:black;stroke-width:2.5">
		<circle class="outline" cx="50" cy="50" r="50" stroke-width="4" fill="#AFF" />
		<line x1="50" x2="50" y1="0" y2="100" />
		<line y1="25" y2="75" x1="6.7" x2="93.3" />
		<line y1="25" y2="75" x1="93.3" x2="6.7" />
		
		<line x1="40" x2="60" y1="20" y2="20" />
		<line x1="40" x2="60" y1="20" y2="20" transform="rotate(60 50 50)" />
		<line x1="40" x2="60" y1="20" y2="20" transform="rotate(120 50 50)" />
		<line x1="40" x2="60" y1="20" y2="20" transform="rotate(180 50 50)" />
		<line x1="40" x2="60" y1="20" y2="20" transform="rotate(240 50 50)" />
		<line x1="40" x2="60" y1="20" y2="20" transform="rotate(300 50 50)" />
	</g>
</svg>

<svg id="fire" class="circle-glyph element" x="120" y="0" width="120" height="120"
			>
	<title>Fire Elemental Glyph</title>
	<g transform="translate(10,10)" style="fill:none;stroke:black;stroke-width:2.5">
		<circle class="outline" cx="50" cy="50" r="50" stroke-width="4" fill="red" />
		<circle cx="50" cy="85" r="15" />
		<circle cx="50" cy="70" r="30" />
		<path d="M50,30 c-10,-10 10,-10 0,-20"/>
		<path d="M35,32 c-10,-10 10,-10 0,-20"/>
		<path d="M65,32 c-10,-10 10,-10 0,-20"/>
	</g>
</svg>

<svg id="electric" class="circle-glyph element" x="0" y="0" width="120" height="120">
	<title>Electric Elemental Glyph</title>
	<g transform="translate(10,10)" fill="none" stroke="black" stroke-width="2.5">
		<circle class="outline" cx="50" cy="50" r="50" style="stroke-width:4;fill:yellow" />
		<!-- yes, I cheated on these: I used a trim function -->
		<line x1="0" x2="100" y1="50" y2="50" />
		<line x1="4.5" x2="15" y1="70.87" y2="50" />
		<line x1="23.66" x2="45" y1="92.54" y2="50" />
		<line x1="20" x2="44.868" y1="50" y2="0.2641" />
		<line x1="50" x2="75" y1="100" y2="50" />
		<line x1="50" x2="72.36" y1="50" y2="5.27" />
		<line x1="80" x2="92.868" y1="50" y2="24.26" />
	</g>
</svg>


</svg>