<?xml version="1.0" standalone="yes"?>
<!DOCTYPE svg PUBLIC "-//W3C//DTD SVG 1.1//EN" "http://www.w3.org/Graphics/SVG/1.1/DTD/svg11.dtd">
<svg version="1.1" xmlns="http://www.w3.org/2000/svg" xmlns:xlink="http://www.w3.org/1999/xlink"
			id="confuse" class="circle-glyph status" x="0" y="0" width="120" height="120">
	<title>Confuse Status Glyph</title>
	<g transform="translate(10,10)" style="fill:none;stroke:black;stroke-width:2.5">
		<circle class="outline" cx="50" cy="50" r="50" style="stroke-width:4;fill:white" />
		
		<path d="M50,100 C-10,100 -10,5 50,5 C105,5 105,90 50,90
						 C0,90  0,15 50,15     C95,15 95,80 50,80
						C12.5,80 12.5,25 50,25 C82.5,25 82.5,70 50,70
						C25,70   25,35   50,35   C70,35 70,60 50,60
						C37.5,60 37.5,45 50,45" />
	</g>
</svg>
